<?xml version="1.0" encoding="UTF-8"?>
<svg id="Camada_1" xmlns="http://www.w3.org/2000/svg" version="1.1" viewBox="0 0 1165.9 255">
  <!-- Generator: Adobe Illustrator 30.5.1, SVG Export Plug-In . SVG Version: 2.1.4 Build 3)  -->
  <defs>
    <style>
      .st0 {
        fill: none;
      }

      .st1 {
        fill: #f7b661;
      }
    </style>
  </defs>
  <path class="st1" d="M1163.9,137.1c5.5,14.9-.9,26.9-12.9,37.2-12.5,10.7-28,14.7-44,17.2l-24.3,3.7c-16.5,2.5-31.8,6.8-47.5,12.3-5.2,1.8-10.4,3.4-15.6,4.7,1.1,1.2,1.8,2.8,2.2,4.5,1.3,6.5-2.2,13.2-7.9,16.6-5.9,3.5-13,3.6-19.2,1.6,2.5,3.2,4.8,6.3,5.7,10,1.2,4.9-4.4,8.5-8.8,9.1-18.3,2.6-36.3-1.1-53-8.7-7.9-3.6-13.6-9.5-16.9-17.4l-6.4-15.3-11.7.2-66.6,12.6c-32.2,6.1-49.1,31.1-103.9,16.7-22.6-6-46.9-5.9-69.8-1.3-26.8,5.3-52.3,8.5-79.6,8.3l-59.1-2.4c-16.8-.7-34.1-3.7-51.2-7.1.1.3.3.7.4,1,1.7,5.5-4.3,9.5-8.8,10.8-5.4,1.8-11.2,1.2-16.6.2-3.6-.6-7.3-1.7-10.4-3.7-3.1-1.9-5.9-4-9-5.8-3-1.8-6.4-3.1-9.4-4.7-3-1.5-5.9-3.4-8.9-5-3-1.5-5.9-2.8-9.4-3.4v-.5c1-.4,2-.6,3.1-.7-5.8-.3-11.3-.3-16.7.1-19.1,1.5-37.3,4.8-56.2,7.8-18.1,2.9-35.5,3.6-53.8,2.6-37.5-2.2-71.8-12.5-93.1-44.5-4.6-6.9-11.5-24.3-14.1-32.8-2-.6-4-1.3-6.5-2-15.3-1.3-22.3.8-36.1,7.3-8.8,5.2-17.9,10.5-27.3,14.6-6.4,2.8-9.5,4.2-15.6,7-19.6,9-41.7,11.5-62.5,14.2-7.9,1-17,2.6-22.6-3.7,15-4.8,28.9-10.7,42.3-18.4,14.9-8.6,29.4-18.5,44.1-27.9,7.2-4.5,11.1-6.5,18.4-11.2,16.8-11.2,37.2-27.9,58.4-26.7,3.1.2,6.3.4,9.3.3,5.5-17.7,17.3-39.3,30.4-51.8,19.6-18.5,44.2-31.7,70.9-36.8,3.9-.7,7.8-1.3,11.7-1.8,11.1-4.6,22.3-8.9,33.9-12.2,7.1-1.9,14.4-3.5,21.5-5.5,10.7-3,21.5-6.6,32.8-6.8,19,0,37.9,7.4,51.8,20.4,5.2,5,9.7,10.9,12.5,17.6,17-1.8,33.6-4.5,50.7-7l36.9-5.4c10.8-1.6,21-2.7,32.1-2.5l8.2-.6,34.8.3,37.5,2.7,37.9,3.1c27.8,2.3,41.6-2.4,54.8-4.5h0c3.7-4,8.6-7,13.7-8.7,3.2-.9,6.5-1.1,9.7-1.6,3.9-.6,8-1.5,12.1-1.8,9.2-.6,18.9,2.8,25.1,9.7,1.8,2,3.4,4.3,4.4,6.8,8.1,2.3,16,5.1,23.9,8.4,16.1,1.1,31.1,4,45.9,10.1l25.8,9,17,5.2c5-12.9,10-25.3,17.2-36.9,9.4-15.2,26-25.9,43.3-20.7,11.6,3.5,22,7.9,32.9,13.2,1.5.7,3.4,3.6,3.8,5,.3,1.5-1.2,4.9-2.6,5.6l-11,5.5-8.4,4.4c-2.8,6.3-4.3,12.5-4.1,19.4l15.6,3.6,41.1,17c8.9,3.7,18.2,9.3,23.9,16.7,4.2,5.5,6.8,9.7,13.9,11.6l44.7,11.8,29,7.2c7.1,1.8,13.2,5,15.9,12.4Z"/>
  <path class="st0" d="M178.1,108.9l-3.4,1.5c0,.3-.1.5-.2.8,1.2-.7,2.4-1.4,3.5-2.1,0,0,0,0,0-.1Z"/>
  <path d="M1151.1,174.3c-12.5,10.7-28,14.7-44,17.2l-24.3,3.7c-16.5,2.5-31.8,6.8-47.5,12.3-5.2,1.8-10.4,3.4-15.6,4.7-.2,0-.4,0-.6.1-10.8,2.7-21.7,4.7-33.2,7,.9,5.5,4,9.7,7.2,13.7.5.7,1.1,1.3,1.6,1.9,2.5,3.2,4.8,6.3,5.7,10,1.2,4.9-4.4,8.5-8.8,9.1-18.3,2.6-36.3-1.1-53-8.7-7.9-3.6-13.6-9.5-16.9-17.4l-6.4-15.3-11.7.2-66.6,12.6c-32.2,6.1-49.1,31.1-103.9,16.7-22.6-6-46.9-5.9-69.8-1.3-26.8,5.3-52.3,8.5-79.6,8.3l-59.1-2.4c-16.8-.7-34.1-3.7-51.2-7.1-.4,0-.8-.2-1.3-.3-21.3-4.3-42.3-9.2-61.7-11-2-.2-4-.3-6-.4-5.8-.3-11.3-.3-16.7.1-19.1,1.5-37.3,4.8-56.2,7.8-18.1,2.9-35.5,3.6-53.8,2.6-37.5-2.2-71.8-12.5-93.1-44.5-4.6-6.9-11.5-24.3-14.1-32.8,0-.3-.2-.5-.2-.8l3.3-1.1c.2,1,.5,2,.9,3.2,2.9,9.8,9.6,25.9,14.5,32.4,11.4,15.1,25.7,25.9,43.4,32.8,28.3,11.1,77.8,9.3,108.8,3.8l17.3-3c28.7-5,56.3-3.6,84.9,2l43.5,8.5c25.7,5.1,51,5.9,77.7,6.6,28.3.7,54.8-.3,82.1-4.9,11.6-1.9,22.4-5.6,34.2-5.9,17.8-.4,36,0,53.3,4.1,16.7,4,32.9,7.9,49.4,1.6l27.5-10.4c10.6-4,20.9-7.7,32.1-9.9l46.9-9.1c8.3-1.6,16.2-1.9,25.1-.8-4.8-8.7-5.8-19.3,1.4-26.1l-.3,12.4c.9,8.9,3.9,16.8,6.7,25.1,2.7,8,6.4,14.3,13.9,18.4,18.3,10.1,39.7,16,59.7,8.3,0-4.3-1.6-8.5-4.8-11.2-6.1-5.3-8.2-11.9-9.7-19.6l-5.9-29.6c-1.1-5.8,1.1-12.2,7-14.4-6.2,10.9-3.4,19.4-.3,30.4l3.5,12.6,23-5,12.4-2.9,31.9-11c19-5.4,38.1-7.8,57.8-10.3,13.8-1.8,26.3-6,36.7-15.4,2.2-2,5.1-3.6,7.6-4.9-3.4.2-9.7.8-11.8-2-4.4-6-3.1-13.2-1.9-20.3,0-1.2-.4-2.5-.7-.4-3.4,2.1,2-3.8,1.5-4.7l-.9-1.6c-2.5-4.1-2.8-8.9,1.5-12.1,2.1-.3,2-1,0-1l-21.4-4-34.8-8.1-15.5-5.5c-7.6-2.4-13.1-7.5-16.4-14.9-12.6-9.5-26.5-15.9-41-22-11.7-4.9-22.8-9.6-35.3-11.5l-.3,9.1c0,2.6-4.2,2.5-6.4.9-3.6-2.4,3.7-7.9,2.6-13.9-1.9-10.4,2.6-18.5,12.1-23.4l14.6-7.5c.7-.4,1-3.2.7-3.8-12.4-8.1-25.8-13.3-40.5-15.4-13.2.4-24.3,7.1-31.6,18.2-8.2,12.4-13.9,26.2-18.2,40.7-1.2,4.1,2.9,7.1,6.2,9.6-1.4,1-5.4.5-7.2-1-1.5-1.2-2.3-4.9-2.8-6.8-3.2-5.4-10.5-3.8-15.2-5.6l-35.1-13.1c-7.3-2.7-15.1-5.2-22.9-5.5-8.4-.2-15.6-1.3-23.2-4.5-31.2-13-59.8-15.5-92.9-8.3-9.9,2.1-19.5,3.2-29.5,2.5l-46.5-3.5-53.3-3.5h-25.2s-44.4,4.7-44.4,4.7l-44,7-39.1,4.8c-18.7,2.3-36.6.9-54.7-4.1-23.9-6.6-57.2-12.6-81.3-10.8-12.7,1-25.8,1.9-37.7,5.7-33.3,10.5-61.1,31.1-78.1,61.5-2,3.6-5,10.4-7.3,16.1,0,0,0,.2-.1.2-.8,2-1.6,3.9-2.2,5.5,0,.2-.2.5-.3.7l-3.4,1.5c.2-.8.4-1.5.7-2.3,5.5-17.7,17.3-39.3,30.4-51.8,19.6-18.5,44.2-31.7,70.9-36.8,3.9-.7,7.8-1.3,11.7-1.8,4.3-.5,8.6-.8,13-1,29.6-1.2,60.9,4.1,88.5,11.3,13.2,3.4,26,5.3,39.8,4.3,2.9-.2,5.7-.5,8.6-.8.9,0,1.7-.2,2.6-.3,17-1.8,33.6-4.5,50.7-7l36.9-5.4c10.8-1.6,21-2.7,32.1-2.5l8.2-.6,34.8.3,37.5,2.7,37.9,3.1c27.8,2.3,41.6-2.4,54.8-4.5h0c2.2-.4,4.4-.6,6.7-.8,1.3,0,2.7-.2,4-.2h24.1c9.4.6,18.4,2.2,27.2,4.5,1,.3,2.1.5,3.1.8,8.1,2.3,16,5.1,23.9,8.4,16.1,1.1,31.1,4,45.9,10.1l25.8,9,17,5.2c5-12.9,10-25.3,17.2-36.9,9.4-15.2,26-25.9,43.3-20.7,11.6,3.5,22,7.9,32.9,13.2,1.5.7,3.4,3.6,3.8,5,.3,1.5-1.2,4.9-2.6,5.6l-11,5.5-8.4,4.4c-2.8,6.3-4.3,12.5-4.1,19.4l15.6,3.6,41.1,17c8.9,3.7,18.2,9.3,23.9,16.7,4.2,5.5,6.8,9.7,13.9,11.6l44.7,11.8,29,7.2c7.1,1.8,13.2,5,15.9,12.4,5.5,14.9-.9,26.9-12.9,37.2Z"/>
  <path d="M960.5,168.8c-12.1.5-22.4,0-32.9,5.3,8.5-8.3,21.9-12,32.9-5.3Z"/>
  <path d="M807.2,78.4c-2.7,2.6-3.4,7.2-8,8,3.1-9.2,11.8-16.2,20.7-15.2-4.4,2.3-9.4,4.1-12.6,7.2Z"/>
  <path d="M203.5,106.4c-1.2-5.5,3.7-8.8,7.7-11.9s7.4-6.7,13.2-5.1c-8.5,3.4-15.3,7.9-21,16.9Z"/>
  <path d="M697.4,41.7l-12.7.3c8-3.7,16.9-4.8,25.8-.4l-13.1.2Z"/>
  <path d="M401.4,213.1c-7.3,1.9-12.5-2.3-22.8-2.1-1.3,0-3.1-.7-3.9-1.6,4.6-.3,9.9-1.3,13.7-.2l12.9,3.9Z"/>
  <path d="M655.8,224.1c-9.3,2.6-16.2,5.1-25.1,2.3l23.7-3.8h1.6c.4,0,0,1.7-.2,1.5Z"/>
  <path d="M999.6,206.8l-1,3.3c-4.1-2.7-7.1-5.9-9.3-9.7l19.8,9.2c-3.2.8-6.3-.6-9.5-2.8Z"/>
  <path d="M941.2,73.3l-8.7,2.8c1.4-2.7,4.6-5.5,7.7-5.5h15.8c0,0-14.9,2.7-14.9,2.7Z"/>
  <path d="M640.7,214.6c-6.9,1.6-12.9,2.3-20.1,2.5,1.3-1.6,3-2.1,5.1-2.2,5-.3,9.4-4.7,15-.2Z"/>
  <path d="M243.3,208.8c-5.5,1.9-14.5-4.5-17.8-10.2l17.8,10.2Z"/>
  <path d="M361.7,64.7c-6.9.5-14.1-.8-21.1-3.3,7.1-1,13.6.2,21.1,3.3Z"/>
  <path d="M977.9,247.3c-5.5.1-11.6-4.1-15-6.9-.4-.9-.7-3.7-.7-4.5l2.8,4.1,12.9,7.2Z"/>
  <path d="M797.3,104.8c-1.4,3.4-2.2,6.3-5,9.2-.2-6.4,2.4-13.6,9.4-17l-4.4,7.8Z"/>
  <path d="M975,20.7c-6.2,3.8-10.9,6.1-17.7,6.9l5.5-3.6c3.6-2.4,8-3.9,12.2-3.2Z"/>
  <path d="M756.5,62.3c1,1-1,2.2-1.8,1.2l-18.7-1.1c7.1-2.5,13-1.2,20.6,0Z"/>
  <path d="M595.6,41.2l-16.2-.5c-1.1.8-3.5.7-1.4-1.5l15.5-.2c.4,0,1.6,1.4,2.1,2.2Z"/>
  <path d="M355.7,197.9c2.1,1.3-10,5.8-18.2,1.8l14.8-1.3c.4,0,1.7-1.5,2-1.3l1.3.8Z"/>
  <path d="M348.4,48.3c-5.6,3-11.8-.1-16.9-3.1,5.9,0,11.1.5,16.9,3.1Z"/>
  <path d="M611.7,226.3c-6.2,2.2-12.8,3.2-19.4.2l19.4-.2Z"/>
  <path d="M939.6,26.9l-8.9,15.6c.4-5.8,2.4-12.7,8.9-15.6Z"/>
  <path d="M383.1,201.1l-6.7-1.4c-5.2-1.1-10.5-1.3-14.8-4.4l17.8,3.3c1,.2,2.6,1.3,3.7,2.5Z"/>
  <polygon points="578.7 52 569 51.9 557.9 50.4 576.5 49.9 578.7 52"/>
  <path d="M274.5,218.6c-6.3-.3-11.8-1.3-17.2-3.7,6.3-1,11.6.7,17.2,3.7Z"/>
  <path d="M386.6,48c-6-3.9-11.9-2.3-14.1-6l12.4,1.6,1.7,4.4Z"/>
  <path d="M783.8,47.1c1.4.5,3.5,3.1,4.1,3.9-6-1.1-11-3.8-14.8-8.1l10.7,4.2Z"/>
  <path d="M791.7,158.2c1.2-5.8,3-10.8,5.6-16.5.6,6.1-2.1,11.5-5.6,16.5Z"/>
  <path d="M741.7,35.9h-17c4.9-2.9,10.6-3,17,0Z"/>
  <path d="M383.5,219.1c3,.2,6.5-1.1,8.5,2l-20.7-2-.5-1.1,12.6,1.1Z"/>
  <path d="M226.6,187.7c-5.6.2-11.5-3.7-14-9.7l14,9.7Z"/>
  <path d="M738.9,74.6c-6,.8-11.5.9-17.2-1.1,5.8-.9,11.6-.7,17.2,1.1Z"/>
  <path d="M884.7,73.2c-5.3-1.2-9.6-3.8-14.1-7.1,5.5.6,9.9,3,14.1,7.1Z"/>
  <path d="M730.8,176.2c-5.5,2.7-11.2,3.4-17.2,2.3l17.2-2.3Z"/>
  <path d="M337.6,211.2l-14.7-.5,17-1.7c.3-.1-1.9,2.2-2.3,2.1Z"/>
  <path d="M888.2,175.3c-2.2-5-.7-10,3-13.9l-1.2,7.8c-.3,1.9-.8,4.1-1.8,6.2Z"/>
  <path d="M212.8,198c-4.2-2.1-7-6.2-7.9-11.7,3.4,3.3,5.7,6.7,7.9,11.7Z"/>
  <path d="M798.9,174.2c-2.3-4.2-1-10.7,2.5-15.2l-2.5,15.2Z"/>
  <polygon points="327.2 59.4 319.8 58.6 310.6 56.4 321.2 56.4 327.2 59.4"/>
  <path d="M766.7,210.1c-4.2,2.6-9.1,4.7-14.8,1.5l14.8-1.5Z"/>
  <path d="M942.4,61.4l-12.9,6.3c2.5-4.7,6.2-6.6,12.9-6.3Z"/>
  <path d="M808.7,221.8c-4.1,1.5-8.6,2.3-13.2,2.1,3.7-3.6,7.9-3.3,13.2-2.1Z"/>
  <path d="M790,140.1c-.5-6.3,1.8-12.5,5.8-17.3l-5.8,17.3Z"/>
  <path d="M886.6,128l-5.9,10.3c-1.9-5.3,1.2-7.9,4.7-11.4.3.3,1.6,1.4,1.3,1.2Z"/>
  <path d="M1053,121.8c1.9-2.3,2.3-5.4,2.4-8.3.2-5.7,0-13.5-2.7-18.5-2.3,3.1-.2,7.7,0,11.2.5,5.2.3,10.5.1,15.7Z"/>
  <path d="M1055.3,115.9c1.7-.3,3.5-.9,4.4-2.7,1-2,.8-5.3-.3-8.1s-3.1-5.2-5.1-6.3l1.1,17.1Z"/>
  <path d="M1049.4,170.4c2.9.6,5.9,1.4,7.9,3.6,2.1,2.2,2.7,5.7,1.6,8.6s-3.7,5.1-6.7,5.9l-2.9-18.1Z"/>
  <path d="M1050.2,172.8c0-.9.2-2.1,1.1-2.4,1.2-.3,1.9,1.5,1.9,2.8,0,7.5-.8,15.3-3.1,22.5-1.4-6.9,0-15.6.1-22.9Z"/>
  <path d="M438.5,38.9l-2,.9c-.3-.5-.6-1.1-.9-1.6-3.4-5.6-7.9-10.4-12.9-14.5-11.1-9-24.5-15-38.4-18-7.1-1.5-14.1-1.5-21.4-1.2-7.3.3-14.5,1.6-21.5,3.7-7.1,2-13.8,5-20.7,7.8-6.8,2.8-13.8,5-20.9,7.1-.4.1-.8.2-1.2.4-6.7,1.9-13.5,3.6-20.4,4.6v-.5c2.4-1.1,4.9-2.1,7.4-3.1,11.1-4.6,22.3-8.9,33.9-12.2,7.1-1.9,14.4-3.5,21.5-5.5,10.7-3,21.5-6.6,32.8-6.8,19,0,37.9,7.4,51.8,20.4,5.2,5,9.7,10.9,12.5,17.6l.4,1Z"/>
  <path d="M1013.9,233.4c-5.9,3.5-13,3.6-19.2,1.6-1.5-.5-3-1.1-4.4-1.8.9,0,1.9,0,2.8,0,6.4-.2,12.8-.7,18.3-4,5.4-3.4,9.3-10,7.7-16.7,0-.3-.2-.6-.3-1,.3.2.6.5.8.8,1.1,1.2,1.8,2.8,2.2,4.5,1.3,6.5-2.2,13.2-7.9,16.6Z"/>
  <path d="M796.8,30.2l-.4.3c-1.1-1-2.2-2-3.3-2.9-7.7-6.3-16.9-10.3-26.6-12.2-3.8-.8-7.8-1-11.6,0-3.8,1-7.1,3.3-10.6,4.9-1.5.7-4.8,2.2-6.3,2.9,0,0-.2,0-.2.1-2.7,1.2-5.5,2.6-8.5,3.7l-.3-.4c.7-.9,1.4-1.7,2.1-2.5h0c3.7-4,8.6-7,13.7-8.7,3.2-.9,6.5-1.1,9.7-1.6,3.9-.6,8-1.5,12.1-1.8,9.2-.6,18.9,2.8,25.1,9.7,1.8,2,3.4,4.3,4.4,6.8.2.6.5,1.2.7,1.8Z"/>
  <path d="M199.9,174.2c-6.3-1.7-12.3-6.3-19.1-9.7-2.4-.7-4.4-1.4-6.3-2-1.3-.4-2.6-.9-3.9-1.3-2-.6-4-1.3-6.5-2-15.3-1.3-22.3.8-36.1,7.3-8.8,5.2-17.9,10.5-27.3,14.6-6.4,2.8-9.5,4.2-15.6,7-19.6,9-41.7,11.5-62.5,14.2-7.9,1-17,2.6-22.6-3.7,15-4.8,28.9-10.7,42.3-18.4,14.9-8.6,29.4-18.5,44.1-27.9,7.2-4.5,11.1-6.5,18.4-11.2,16.8-11.2,37.2-27.9,58.4-26.7,3.1.2,6.3.4,9.3.3h.4c.7,0,1.6,0,2.6,0,5.3.3,13.9,1.6,13.9,1.6.5.8.7,1.2,1.2,2-6.6,2.3-14.3-.4-21.8-.8-31.2-1.7-60.9,23.8-86.6,41.2-11.9,8.1-24.1,15.7-37.2,22.2-6.9,3.3-10.4,5.4-17.4,9.3-8.2,3.9-12.3,6.1-20.3,9.3,5.1,1.8,9.5,2,15.1,1.2,4-.6,5.9-1,9.9-1.5,23.7-4.2,45.6-11.4,67.4-21.4,8.6-3.9,12.4-6.2,20.2-10.8,19.8-10.8,33.9-14.1,55.4-8,8.5,2.4,18.9,7.9,24.6,15Z"/>
  <path d="M465.1,251.5c-5.4,1.8-11.2,1.2-16.6.2-3.6-.6-7.3-1.7-10.4-3.7-3.1-1.9-5.9-4-9-5.8-3-1.8-6.4-3.1-9.4-4.7-3-1.5-5.9-3.4-8.9-5-3-1.5-5.9-2.8-9.4-3.4v-.5c1-.4,2-.6,3.1-.7,2-.2,4,0,6,.4,4.1,1,8.1,3.2,11.4,5.6,2.8,2.2,5.2,4.8,8.1,6.8,2.8,2,6,3.7,9.2,4.6,7.3,1.9,27.3,3.9,32.2-2.6.6-1,.7-2.3.7-3.5s0-.8,0-1.1h.5c.3.3.6.8.8,1.4.1.3.3.7.4,1,1.7,5.5-4.3,9.5-8.8,10.8Z"/>
</svg>