<?xml version="1.0" encoding="UTF-8"?>
<svg id="Layer_1" xmlns="http://www.w3.org/2000/svg" version="1.1" viewBox="0 0 117.6 182.9">
  <!-- Generator: Adobe Illustrator 30.6.0, SVG Export Plug-In . SVG Version: 2.1.4 Build 109)  -->
  <defs>
    <style>
      .st0 {
        fill: #d9a066;
      }

      .st0, .st1, .st2, .st3 {
        stroke: #2b2b2b;
        stroke-linecap: round;
        stroke-linejoin: round;
        stroke-width: 4px;
      }

      .st4 {
        fill: #2b2b2b;
      }

      .st1 {
        fill: #c68642;
      }

      .st2 {
        fill: #8b5a2b;
      }

      .st3 {
        fill: #a9682f;
      }
    </style>
  </defs>
  <ellipse class="st0" cx="59.4" cy="20" rx="16" ry="18"/>
  <ellipse class="st3" cx="91.4" cy="86" rx="13" ry="15"/>
  <ellipse class="st3" cx="27.4" cy="86" rx="13" ry="15"/>
  <path class="st1" d="M60.8,164c-8.5,5.7-15.6,12.6-12.8,16,2.8,2.3,9.9,0,14.2-5.7,2.8-3.4,2.8-8-1.4-10.3Z"/>
  <ellipse class="st3" cx="31.4" cy="146" rx="14" ry="16"/>
  <ellipse class="st3" cx="87.4" cy="146" rx="14" ry="16"/>
  <ellipse class="st1" cx="59.4" cy="111" rx="42" ry="55"/>
  <ellipse class="st0" cx="59.4" cy="54" rx="34" ry="32"/>
  <path class="st2" d="M87.1,49.3c18.1,3.1,30.3-1,28.2-11-6.2-6.5-20.4-5.9-29.2,2.4l.9,8.7Z"/>
  <ellipse class="st4" cx="59.4" cy="6" rx="6" ry="5"/>
  <path class="st2" d="M30.5,52.2c-18.1,3.1-30.3-1-28.2-11,6.2-6.5,20.4-5.9,29.2,2.4l-.9,8.7Z"/>
</svg>